<mxfile host="app.diagrams.net" modified="2023-12-08T02:56:23.090Z" agent="Mozilla/5.0 (Windows NT 10.0; Win64; x64) AppleWebKit/537.36 (KHTML, like Gecko) Chrome/119.0.0.0 Safari/537.36" etag="HzSNeSV8PKgShsuuzyeV" version="22.1.7" type="device" pages="2">
  <diagram name="Страница — 1" id="g2w5ZTPSeXNhlouZL2E_">
    <mxGraphModel dx="2172" dy="1942" grid="1" gridSize="10" guides="1" tooltips="1" connect="1" arrows="1" fold="1" page="1" pageScale="1" pageWidth="827" pageHeight="1169" math="0" shadow="0">
      <root>
        <mxCell id="0" />
        <mxCell id="1" parent="0" />
        <mxCell id="41TGj7JsFMni15de7Ajq-4" value="Пользователь" style="shape=umlActor;verticalLabelPosition=bottom;verticalAlign=top;html=1;outlineConnect=0;" vertex="1" parent="1">
          <mxGeometry x="250" y="290" width="30" height="60" as="geometry" />
        </mxCell>
        <mxCell id="41TGj7JsFMni15de7Ajq-5" value="Перейти в форму&lt;br&gt;SignIn&amp;nbsp;" style="ellipse;whiteSpace=wrap;html=1;" vertex="1" parent="1">
          <mxGeometry x="336" y="170" width="114" height="70" as="geometry" />
        </mxCell>
        <mxCell id="41TGj7JsFMni15de7Ajq-7" value="Выйти из приложения" style="ellipse;whiteSpace=wrap;html=1;" vertex="1" parent="1">
          <mxGeometry x="380" y="40" width="114" height="70" as="geometry" />
        </mxCell>
        <mxCell id="41TGj7JsFMni15de7Ajq-8" value="перейти в форму&lt;br&gt;Registration" style="ellipse;whiteSpace=wrap;html=1;" vertex="1" parent="1">
          <mxGeometry x="210" y="85" width="114" height="70" as="geometry" />
        </mxCell>
        <mxCell id="41TGj7JsFMni15de7Ajq-9" value="перейти в форму&lt;br&gt;Chat" style="ellipse;whiteSpace=wrap;html=1;" vertex="1" parent="1">
          <mxGeometry x="530" y="-10" width="114" height="70" as="geometry" />
        </mxCell>
        <mxCell id="41TGj7JsFMni15de7Ajq-10" value="ввести данные&lt;br&gt;для входа" style="ellipse;whiteSpace=wrap;html=1;" vertex="1" parent="1">
          <mxGeometry x="553" y="165" width="114" height="70" as="geometry" />
        </mxCell>
        <mxCell id="41TGj7JsFMni15de7Ajq-11" value="ввести данные&lt;br&gt;для регистрации" style="ellipse;whiteSpace=wrap;html=1;" vertex="1" parent="1">
          <mxGeometry x="70" y="25" width="114" height="70" as="geometry" />
        </mxCell>
        <mxCell id="41TGj7JsFMni15de7Ajq-12" value="ввести email" style="ellipse;whiteSpace=wrap;html=1;" vertex="1" parent="1">
          <mxGeometry x="713" y="125" width="114" height="70" as="geometry" />
        </mxCell>
        <mxCell id="41TGj7JsFMni15de7Ajq-13" value="ввести password" style="ellipse;whiteSpace=wrap;html=1;" vertex="1" parent="1">
          <mxGeometry x="703" y="215" width="114" height="70" as="geometry" />
        </mxCell>
        <mxCell id="41TGj7JsFMni15de7Ajq-14" value="ввести email" style="ellipse;whiteSpace=wrap;html=1;" vertex="1" parent="1">
          <mxGeometry x="-10" y="-120" width="114" height="70" as="geometry" />
        </mxCell>
        <mxCell id="41TGj7JsFMni15de7Ajq-15" value="ввести password" style="ellipse;whiteSpace=wrap;html=1;" vertex="1" parent="1">
          <mxGeometry x="-100" y="-45" width="114" height="70" as="geometry" />
        </mxCell>
        <mxCell id="41TGj7JsFMni15de7Ajq-16" value="ввести email" style="ellipse;whiteSpace=wrap;html=1;" vertex="1" parent="1">
          <mxGeometry x="-44" y="155" width="114" height="70" as="geometry" />
        </mxCell>
        <mxCell id="41TGj7JsFMni15de7Ajq-17" value="ввести password" style="ellipse;whiteSpace=wrap;html=1;" vertex="1" parent="1">
          <mxGeometry x="-124" y="60" width="114" height="70" as="geometry" />
        </mxCell>
        <mxCell id="41TGj7JsFMni15de7Ajq-25" value="&quot;extend&quot;" style="html=1;verticalAlign=bottom;endArrow=open;dashed=1;endSize=8;curved=0;rounded=0;exitX=1;exitY=1;exitDx=0;exitDy=0;entryX=0;entryY=0.5;entryDx=0;entryDy=0;" edge="1" parent="1" source="41TGj7JsFMni15de7Ajq-11" target="41TGj7JsFMni15de7Ajq-8">
          <mxGeometry x="0.1755" y="16" relative="1" as="geometry">
            <mxPoint x="230" y="-35" as="sourcePoint" />
            <mxPoint x="240" y="35" as="targetPoint" />
            <mxPoint as="offset" />
          </mxGeometry>
        </mxCell>
        <mxCell id="41TGj7JsFMni15de7Ajq-26" value="&quot;extend&quot;" style="html=1;verticalAlign=bottom;endArrow=open;dashed=1;endSize=8;curved=0;rounded=0;entryX=1;entryY=0.5;entryDx=0;entryDy=0;exitX=0;exitY=0.5;exitDx=0;exitDy=0;" edge="1" parent="1" source="41TGj7JsFMni15de7Ajq-10" target="41TGj7JsFMni15de7Ajq-5">
          <mxGeometry x="-0.0352" y="3" relative="1" as="geometry">
            <mxPoint x="410" y="90" as="sourcePoint" />
            <mxPoint x="464" y="160" as="targetPoint" />
            <mxPoint y="1" as="offset" />
          </mxGeometry>
        </mxCell>
        <mxCell id="41TGj7JsFMni15de7Ajq-27" value="&quot;extend&quot;" style="html=1;verticalAlign=bottom;endArrow=open;dashed=1;endSize=8;curved=0;rounded=0;entryX=0.5;entryY=0;entryDx=0;entryDy=0;exitX=0.5;exitY=1;exitDx=0;exitDy=0;" edge="1" parent="1" source="41TGj7JsFMni15de7Ajq-7" target="41TGj7JsFMni15de7Ajq-5">
          <mxGeometry x="0.3974" y="-20" relative="1" as="geometry">
            <mxPoint x="556" y="195" as="sourcePoint" />
            <mxPoint x="450" y="240" as="targetPoint" />
            <mxPoint as="offset" />
          </mxGeometry>
        </mxCell>
        <mxCell id="41TGj7JsFMni15de7Ajq-28" value="&quot;include&quot;" style="endArrow=open;endSize=12;dashed=1;html=1;rounded=0;entryX=0;entryY=0.5;entryDx=0;entryDy=0;exitX=1;exitY=0;exitDx=0;exitDy=0;" edge="1" parent="1" source="41TGj7JsFMni15de7Ajq-10" target="41TGj7JsFMni15de7Ajq-12">
          <mxGeometry x="-0.1711" y="14" width="160" relative="1" as="geometry">
            <mxPoint x="583" y="269.40999999999997" as="sourcePoint" />
            <mxPoint x="693" y="269.40999999999997" as="targetPoint" />
            <mxPoint x="-1" as="offset" />
          </mxGeometry>
        </mxCell>
        <mxCell id="41TGj7JsFMni15de7Ajq-29" value="&quot;include&quot;" style="endArrow=open;endSize=12;dashed=1;html=1;rounded=0;entryX=0;entryY=0.5;entryDx=0;entryDy=0;exitX=1;exitY=1;exitDx=0;exitDy=0;" edge="1" parent="1" source="41TGj7JsFMni15de7Ajq-10" target="41TGj7JsFMni15de7Ajq-13">
          <mxGeometry y="14" width="160" relative="1" as="geometry">
            <mxPoint x="661" y="185" as="sourcePoint" />
            <mxPoint x="723" y="170" as="targetPoint" />
            <mxPoint as="offset" />
          </mxGeometry>
        </mxCell>
        <mxCell id="41TGj7JsFMni15de7Ajq-30" value="&quot;include&quot;" style="endArrow=open;endSize=12;dashed=1;html=1;rounded=0;entryX=1;entryY=1;entryDx=0;entryDy=0;exitX=0.5;exitY=0;exitDx=0;exitDy=0;" edge="1" parent="1" source="41TGj7JsFMni15de7Ajq-11" target="41TGj7JsFMni15de7Ajq-14">
          <mxGeometry x="-0.1915" y="-14" width="160" relative="1" as="geometry">
            <mxPoint x="160" y="-0.589999999999975" as="sourcePoint" />
            <mxPoint x="270" y="-0.589999999999975" as="targetPoint" />
            <mxPoint x="1" as="offset" />
          </mxGeometry>
        </mxCell>
        <mxCell id="41TGj7JsFMni15de7Ajq-31" value="&quot;include&quot;" style="endArrow=open;endSize=12;dashed=1;html=1;rounded=0;entryX=1;entryY=0.5;entryDx=0;entryDy=0;exitX=0;exitY=0;exitDx=0;exitDy=0;" edge="1" parent="1" source="41TGj7JsFMni15de7Ajq-11" target="41TGj7JsFMni15de7Ajq-15">
          <mxGeometry x="-0.1915" y="-14" width="160" relative="1" as="geometry">
            <mxPoint x="137" y="35" as="sourcePoint" />
            <mxPoint x="112" y="-25" as="targetPoint" />
            <mxPoint x="1" as="offset" />
          </mxGeometry>
        </mxCell>
        <mxCell id="41TGj7JsFMni15de7Ajq-32" value="&quot;include&quot;" style="endArrow=open;endSize=12;dashed=1;html=1;rounded=0;entryX=1;entryY=0.5;entryDx=0;entryDy=0;exitX=0;exitY=1;exitDx=0;exitDy=0;" edge="1" parent="1" source="41TGj7JsFMni15de7Ajq-11" target="41TGj7JsFMni15de7Ajq-17">
          <mxGeometry x="-0.1915" y="-14" width="160" relative="1" as="geometry">
            <mxPoint x="96" y="45" as="sourcePoint" />
            <mxPoint x="24" y="30" as="targetPoint" />
            <mxPoint x="1" as="offset" />
          </mxGeometry>
        </mxCell>
        <mxCell id="41TGj7JsFMni15de7Ajq-33" value="&quot;include&quot;" style="endArrow=open;endSize=12;dashed=1;html=1;rounded=0;entryX=0.5;entryY=0;entryDx=0;entryDy=0;exitX=0.5;exitY=1;exitDx=0;exitDy=0;" edge="1" parent="1" source="41TGj7JsFMni15de7Ajq-11" target="41TGj7JsFMni15de7Ajq-16">
          <mxGeometry x="-0.0941" y="-22" width="160" relative="1" as="geometry">
            <mxPoint x="96" y="95" as="sourcePoint" />
            <mxPoint x="34" y="130" as="targetPoint" />
            <mxPoint x="-1" as="offset" />
          </mxGeometry>
        </mxCell>
        <mxCell id="41TGj7JsFMni15de7Ajq-34" value="&quot;extend&quot;" style="html=1;verticalAlign=bottom;endArrow=open;dashed=1;endSize=8;curved=0;rounded=0;exitX=0.5;exitY=1;exitDx=0;exitDy=0;entryX=0;entryY=0;entryDx=0;entryDy=0;" edge="1" parent="1" source="41TGj7JsFMni15de7Ajq-8" target="41TGj7JsFMni15de7Ajq-5">
          <mxGeometry x="0.383" y="13" relative="1" as="geometry">
            <mxPoint x="386" y="45" as="sourcePoint" />
            <mxPoint x="322.85908694150567" y="195.1508633447413" as="targetPoint" />
            <mxPoint as="offset" />
          </mxGeometry>
        </mxCell>
        <mxCell id="41TGj7JsFMni15de7Ajq-35" value="&quot;extend&quot;" style="html=1;verticalAlign=bottom;endArrow=open;dashed=1;endSize=8;curved=0;rounded=0;entryX=0.5;entryY=0;entryDx=0;entryDy=0;exitX=0.5;exitY=1;exitDx=0;exitDy=0;" edge="1" parent="1" source="41TGj7JsFMni15de7Ajq-9" target="41TGj7JsFMni15de7Ajq-10">
          <mxGeometry x="0.1317" y="13" relative="1" as="geometry">
            <mxPoint x="550" y="145" as="sourcePoint" />
            <mxPoint x="444" y="190" as="targetPoint" />
            <mxPoint as="offset" />
          </mxGeometry>
        </mxCell>
        <mxCell id="41TGj7JsFMni15de7Ajq-36" value="ввести сообщение" style="ellipse;whiteSpace=wrap;html=1;" vertex="1" parent="1">
          <mxGeometry x="538" y="-380" width="114" height="70" as="geometry" />
        </mxCell>
        <mxCell id="41TGj7JsFMni15de7Ajq-37" value="посмотреть переписку&lt;br&gt;с пользователем" style="ellipse;whiteSpace=wrap;html=1;" vertex="1" parent="1">
          <mxGeometry x="424" y="-130" width="114" height="70" as="geometry" />
        </mxCell>
        <mxCell id="41TGj7JsFMni15de7Ajq-38" value="посмотреть&lt;br&gt;переписку&lt;br&gt;группы" style="ellipse;whiteSpace=wrap;html=1;" vertex="1" parent="1">
          <mxGeometry x="650" y="-130" width="114" height="70" as="geometry" />
        </mxCell>
        <mxCell id="41TGj7JsFMni15de7Ajq-40" value="&quot;extend&quot;" style="html=1;verticalAlign=bottom;endArrow=open;dashed=1;endSize=8;curved=0;rounded=0;exitX=0.5;exitY=1;exitDx=0;exitDy=0;entryX=0;entryY=0;entryDx=0;entryDy=0;" edge="1" parent="1" source="41TGj7JsFMni15de7Ajq-37" target="41TGj7JsFMni15de7Ajq-9">
          <mxGeometry x="0.406" y="14" relative="1" as="geometry">
            <mxPoint x="624" y="-60" as="sourcePoint" />
            <mxPoint x="640" y="10" as="targetPoint" />
            <mxPoint y="-1" as="offset" />
          </mxGeometry>
        </mxCell>
        <mxCell id="41TGj7JsFMni15de7Ajq-41" value="&quot;extend&quot;" style="html=1;verticalAlign=bottom;endArrow=open;dashed=1;endSize=8;curved=0;rounded=0;exitX=0;exitY=1;exitDx=0;exitDy=0;entryX=1;entryY=0;entryDx=0;entryDy=0;" edge="1" parent="1" source="41TGj7JsFMni15de7Ajq-38" target="41TGj7JsFMni15de7Ajq-9">
          <mxGeometry x="0.3498" y="-15" relative="1" as="geometry">
            <mxPoint x="627" y="-80" as="sourcePoint" />
            <mxPoint x="597" as="targetPoint" />
            <mxPoint as="offset" />
          </mxGeometry>
        </mxCell>
        <mxCell id="41TGj7JsFMni15de7Ajq-43" value="" style="endArrow=none;html=1;rounded=0;entryX=0;entryY=1;entryDx=0;entryDy=0;" edge="1" parent="1" target="41TGj7JsFMni15de7Ajq-5">
          <mxGeometry width="50" height="50" relative="1" as="geometry">
            <mxPoint x="280" y="320" as="sourcePoint" />
            <mxPoint x="360" y="270" as="targetPoint" />
          </mxGeometry>
        </mxCell>
        <mxCell id="41TGj7JsFMni15de7Ajq-44" value="зарегистрироваться" style="ellipse;whiteSpace=wrap;html=1;" vertex="1" parent="1">
          <mxGeometry x="150" y="-105" width="114" height="70" as="geometry" />
        </mxCell>
        <mxCell id="41TGj7JsFMni15de7Ajq-45" value="&quot;extend&quot;" style="html=1;verticalAlign=bottom;endArrow=open;dashed=1;endSize=8;curved=0;rounded=0;exitX=0.5;exitY=1;exitDx=0;exitDy=0;entryX=1;entryY=0;entryDx=0;entryDy=0;" edge="1" parent="1" source="41TGj7JsFMni15de7Ajq-44" target="41TGj7JsFMni15de7Ajq-11">
          <mxGeometry x="0.3502" y="-15" relative="1" as="geometry">
            <mxPoint x="200" y="5" as="sourcePoint" />
            <mxPoint x="260" y="45" as="targetPoint" />
            <mxPoint as="offset" />
          </mxGeometry>
        </mxCell>
        <mxCell id="41TGj7JsFMni15de7Ajq-46" value="&quot;extend&quot;" style="html=1;verticalAlign=bottom;endArrow=open;dashed=1;endSize=8;curved=0;rounded=0;entryX=0;entryY=0.5;entryDx=0;entryDy=0;exitX=1;exitY=0;exitDx=0;exitDy=0;" edge="1" parent="1" source="41TGj7JsFMni15de7Ajq-7" target="41TGj7JsFMni15de7Ajq-9">
          <mxGeometry x="-0.1189" y="8" relative="1" as="geometry">
            <mxPoint x="404" y="-15" as="sourcePoint" />
            <mxPoint x="360" y="45" as="targetPoint" />
            <mxPoint as="offset" />
          </mxGeometry>
        </mxCell>
        <mxCell id="41TGj7JsFMni15de7Ajq-47" value="выйти из формы&lt;br&gt;и вернуться в&amp;nbsp;&lt;br&gt;SignIn" style="ellipse;whiteSpace=wrap;html=1;" vertex="1" parent="1">
          <mxGeometry x="110" y="170" width="114" height="70" as="geometry" />
        </mxCell>
        <mxCell id="41TGj7JsFMni15de7Ajq-48" value="&quot;extend&quot;" style="html=1;verticalAlign=bottom;endArrow=open;dashed=1;endSize=8;curved=0;rounded=0;exitX=0.5;exitY=1;exitDx=0;exitDy=0;entryX=0.5;entryY=0;entryDx=0;entryDy=0;" edge="1" parent="1" source="41TGj7JsFMni15de7Ajq-11" target="41TGj7JsFMni15de7Ajq-47">
          <mxGeometry x="0.3502" y="-15" relative="1" as="geometry">
            <mxPoint x="217" y="-25" as="sourcePoint" />
            <mxPoint x="177" y="45" as="targetPoint" />
            <mxPoint as="offset" />
          </mxGeometry>
        </mxCell>
        <mxCell id="41TGj7JsFMni15de7Ajq-49" value="&quot;include&quot;" style="endArrow=open;endSize=12;dashed=1;html=1;rounded=0;entryX=0;entryY=0.5;entryDx=0;entryDy=0;exitX=1;exitY=0.5;exitDx=0;exitDy=0;" edge="1" parent="1" source="41TGj7JsFMni15de7Ajq-47" target="41TGj7JsFMni15de7Ajq-5">
          <mxGeometry x="-0.1786" y="15" width="160" relative="1" as="geometry">
            <mxPoint x="147" y="310" as="sourcePoint" />
            <mxPoint x="50" y="320" as="targetPoint" />
            <mxPoint x="1" as="offset" />
          </mxGeometry>
        </mxCell>
        <mxCell id="41TGj7JsFMni15de7Ajq-50" value="выбрать пользователя" style="ellipse;whiteSpace=wrap;html=1;" vertex="1" parent="1">
          <mxGeometry x="290" y="-220" width="114" height="70" as="geometry" />
        </mxCell>
        <mxCell id="41TGj7JsFMni15de7Ajq-51" value="выбрать&lt;br&gt;группу" style="ellipse;whiteSpace=wrap;html=1;" vertex="1" parent="1">
          <mxGeometry x="800" y="-210" width="114" height="70" as="geometry" />
        </mxCell>
        <mxCell id="41TGj7JsFMni15de7Ajq-52" value="&quot;include&quot;" style="endArrow=open;endSize=12;dashed=1;html=1;rounded=0;entryX=1;entryY=1;entryDx=0;entryDy=0;exitX=0;exitY=0;exitDx=0;exitDy=0;" edge="1" parent="1" source="41TGj7JsFMni15de7Ajq-37" target="41TGj7JsFMni15de7Ajq-50">
          <mxGeometry x="-0.1915" y="-14" width="160" relative="1" as="geometry">
            <mxPoint x="490" y="-140" as="sourcePoint" />
            <mxPoint x="450" y="-225" as="targetPoint" />
            <mxPoint x="1" as="offset" />
          </mxGeometry>
        </mxCell>
        <mxCell id="41TGj7JsFMni15de7Ajq-53" value="&quot;include&quot;" style="endArrow=open;endSize=12;dashed=1;html=1;rounded=0;entryX=0;entryY=1;entryDx=0;entryDy=0;exitX=1;exitY=0;exitDx=0;exitDy=0;" edge="1" parent="1" source="41TGj7JsFMni15de7Ajq-38" target="41TGj7JsFMni15de7Ajq-51">
          <mxGeometry x="0.1106" y="15" width="160" relative="1" as="geometry">
            <mxPoint x="784" y="-155" as="sourcePoint" />
            <mxPoint x="730" y="-195" as="targetPoint" />
            <mxPoint as="offset" />
          </mxGeometry>
        </mxCell>
        <mxCell id="41TGj7JsFMni15de7Ajq-54" value="отправить&lt;br&gt;сообщение пользователю" style="ellipse;whiteSpace=wrap;html=1;" vertex="1" parent="1">
          <mxGeometry x="470" y="-250" width="114" height="70" as="geometry" />
        </mxCell>
        <mxCell id="41TGj7JsFMni15de7Ajq-55" value="отправить&lt;br&gt;сообщение&lt;br&gt;в группу" style="ellipse;whiteSpace=wrap;html=1;" vertex="1" parent="1">
          <mxGeometry x="620" y="-250" width="114" height="70" as="geometry" />
        </mxCell>
        <mxCell id="41TGj7JsFMni15de7Ajq-56" value="&quot;extend&quot;" style="html=1;verticalAlign=bottom;endArrow=open;dashed=1;endSize=8;curved=0;rounded=0;exitX=0.5;exitY=1;exitDx=0;exitDy=0;entryX=0.5;entryY=0;entryDx=0;entryDy=0;" edge="1" parent="1" source="41TGj7JsFMni15de7Ajq-54" target="41TGj7JsFMni15de7Ajq-37">
          <mxGeometry x="0.3502" y="-15" relative="1" as="geometry">
            <mxPoint x="578" y="-180" as="sourcePoint" />
            <mxPoint x="538" y="-110" as="targetPoint" />
            <mxPoint as="offset" />
          </mxGeometry>
        </mxCell>
        <mxCell id="41TGj7JsFMni15de7Ajq-57" value="&quot;extend&quot;" style="html=1;verticalAlign=bottom;endArrow=open;dashed=1;endSize=8;curved=0;rounded=0;entryX=0.5;entryY=0;entryDx=0;entryDy=0;exitX=0.5;exitY=1;exitDx=0;exitDy=0;" edge="1" parent="1" source="41TGj7JsFMni15de7Ajq-55" target="41TGj7JsFMni15de7Ajq-38">
          <mxGeometry x="0.4647" y="13" relative="1" as="geometry">
            <mxPoint x="610" y="-160" as="sourcePoint" />
            <mxPoint x="491" y="-120" as="targetPoint" />
            <mxPoint as="offset" />
          </mxGeometry>
        </mxCell>
        <mxCell id="41TGj7JsFMni15de7Ajq-58" value="&quot;include&quot;" style="endArrow=open;endSize=12;dashed=1;html=1;rounded=0;entryX=0;entryY=1;entryDx=0;entryDy=0;exitX=0.5;exitY=0;exitDx=0;exitDy=0;" edge="1" parent="1" source="41TGj7JsFMni15de7Ajq-54" target="41TGj7JsFMni15de7Ajq-36">
          <mxGeometry x="0.1628" y="25" width="160" relative="1" as="geometry">
            <mxPoint x="594" y="-260" as="sourcePoint" />
            <mxPoint x="664" y="-290" as="targetPoint" />
            <mxPoint as="offset" />
          </mxGeometry>
        </mxCell>
        <mxCell id="41TGj7JsFMni15de7Ajq-59" value="&quot;include&quot;" style="endArrow=open;endSize=12;dashed=1;html=1;rounded=0;entryX=1;entryY=1;entryDx=0;entryDy=0;exitX=0.5;exitY=0;exitDx=0;exitDy=0;" edge="1" parent="1" source="41TGj7JsFMni15de7Ajq-55" target="41TGj7JsFMni15de7Ajq-36">
          <mxGeometry x="0.0512" y="-26" width="160" relative="1" as="geometry">
            <mxPoint x="720" y="-270" as="sourcePoint" />
            <mxPoint x="748" y="-340" as="targetPoint" />
            <mxPoint as="offset" />
          </mxGeometry>
        </mxCell>
      </root>
    </mxGraphModel>
  </diagram>
  <diagram id="zi-_1LZlcV9p9Z3S2W4I" name="Страница — 2">
    <mxGraphModel dx="1242" dy="1883" grid="1" gridSize="10" guides="1" tooltips="1" connect="1" arrows="1" fold="1" page="1" pageScale="1" pageWidth="827" pageHeight="1169" math="0" shadow="0">
      <root>
        <mxCell id="0" />
        <mxCell id="1" parent="0" />
        <mxCell id="tInyiMjHS99IwZDkYBmr-4" value="" style="rounded=0;whiteSpace=wrap;html=1;" vertex="1" parent="1">
          <mxGeometry y="-390" width="1410" height="1030" as="geometry" />
        </mxCell>
        <mxCell id="tInyiMjHS99IwZDkYBmr-2" value="" style="rounded=0;whiteSpace=wrap;html=1;" vertex="1" parent="1">
          <mxGeometry x="180" y="-220" width="1090" height="730" as="geometry" />
        </mxCell>
        <mxCell id="wtgUFEFOZ-wkIHJtzj9l-1" value="Пользователь" style="shape=umlActor;verticalLabelPosition=bottom;verticalAlign=top;html=1;outlineConnect=0;" vertex="1" parent="1">
          <mxGeometry x="120" y="175" width="30" height="60" as="geometry" />
        </mxCell>
        <mxCell id="wtgUFEFOZ-wkIHJtzj9l-2" value="Перейти в форму&lt;br&gt;SignIn&amp;nbsp;" style="ellipse;whiteSpace=wrap;html=1;" vertex="1" parent="1">
          <mxGeometry x="336" y="170" width="114" height="70" as="geometry" />
        </mxCell>
        <mxCell id="wtgUFEFOZ-wkIHJtzj9l-3" value="Выйти из приложения" style="ellipse;whiteSpace=wrap;html=1;" vertex="1" parent="1">
          <mxGeometry x="528" y="150" width="114" height="70" as="geometry" />
        </mxCell>
        <mxCell id="wtgUFEFOZ-wkIHJtzj9l-4" value="перейти в форму&lt;br&gt;Registration" style="ellipse;whiteSpace=wrap;html=1;" vertex="1" parent="1">
          <mxGeometry x="334" y="30" width="114" height="70" as="geometry" />
        </mxCell>
        <mxCell id="wtgUFEFOZ-wkIHJtzj9l-5" value="перейти в форму&lt;br&gt;Chat" style="ellipse;whiteSpace=wrap;html=1;" vertex="1" parent="1">
          <mxGeometry x="670" y="220" width="114" height="70" as="geometry" />
        </mxCell>
        <mxCell id="wtgUFEFOZ-wkIHJtzj9l-6" value="ввести данные&lt;br&gt;для входа" style="ellipse;whiteSpace=wrap;html=1;" vertex="1" parent="1">
          <mxGeometry x="486" y="310" width="114" height="70" as="geometry" />
        </mxCell>
        <mxCell id="wtgUFEFOZ-wkIHJtzj9l-7" value="ввести данные&lt;br&gt;для регистрации" style="ellipse;whiteSpace=wrap;html=1;" vertex="1" parent="1">
          <mxGeometry x="372" y="-110" width="114" height="70" as="geometry" />
        </mxCell>
        <mxCell id="wtgUFEFOZ-wkIHJtzj9l-8" value="ввести email" style="ellipse;whiteSpace=wrap;html=1;" vertex="1" parent="1">
          <mxGeometry x="590" y="420" width="114" height="70" as="geometry" />
        </mxCell>
        <mxCell id="wtgUFEFOZ-wkIHJtzj9l-9" value="ввести password" style="ellipse;whiteSpace=wrap;html=1;" vertex="1" parent="1">
          <mxGeometry x="400" y="420" width="114" height="70" as="geometry" />
        </mxCell>
        <mxCell id="wtgUFEFOZ-wkIHJtzj9l-10" value="ввести&lt;br style=&quot;border-color: var(--border-color);&quot;&gt;confirm&lt;br style=&quot;border-color: var(--border-color);&quot;&gt;password" style="ellipse;whiteSpace=wrap;html=1;" vertex="1" parent="1">
          <mxGeometry x="528" y="-200" width="114" height="70" as="geometry" />
        </mxCell>
        <mxCell id="wtgUFEFOZ-wkIHJtzj9l-11" value="ввести&lt;br&gt;password" style="ellipse;whiteSpace=wrap;html=1;" vertex="1" parent="1">
          <mxGeometry x="336" y="-210" width="114" height="70" as="geometry" />
        </mxCell>
        <mxCell id="wtgUFEFOZ-wkIHJtzj9l-12" value="ввести name" style="ellipse;whiteSpace=wrap;html=1;" vertex="1" parent="1">
          <mxGeometry x="230" y="-50" width="114" height="70" as="geometry" />
        </mxCell>
        <mxCell id="wtgUFEFOZ-wkIHJtzj9l-13" value="ввести email" style="ellipse;whiteSpace=wrap;html=1;" vertex="1" parent="1">
          <mxGeometry x="230" y="-150" width="114" height="70" as="geometry" />
        </mxCell>
        <mxCell id="wtgUFEFOZ-wkIHJtzj9l-15" value="&quot;extend&quot;" style="html=1;verticalAlign=bottom;endArrow=open;dashed=1;endSize=8;curved=0;rounded=0;entryX=1;entryY=1;entryDx=0;entryDy=0;exitX=0;exitY=0;exitDx=0;exitDy=0;" edge="1" parent="1" source="wtgUFEFOZ-wkIHJtzj9l-6" target="wtgUFEFOZ-wkIHJtzj9l-2">
          <mxGeometry x="-0.1481" y="-17" relative="1" as="geometry">
            <mxPoint x="410" y="90" as="sourcePoint" />
            <mxPoint x="464" y="160" as="targetPoint" />
            <mxPoint as="offset" />
          </mxGeometry>
        </mxCell>
        <mxCell id="wtgUFEFOZ-wkIHJtzj9l-16" value="&quot;extend&quot;" style="html=1;verticalAlign=bottom;endArrow=open;dashed=1;endSize=8;curved=0;rounded=0;entryX=1;entryY=0.5;entryDx=0;entryDy=0;exitX=0;exitY=0.5;exitDx=0;exitDy=0;" edge="1" parent="1" source="wtgUFEFOZ-wkIHJtzj9l-3" target="wtgUFEFOZ-wkIHJtzj9l-2">
          <mxGeometry x="-0.0857" y="-9" relative="1" as="geometry">
            <mxPoint x="556" y="195" as="sourcePoint" />
            <mxPoint x="450" y="240" as="targetPoint" />
            <mxPoint as="offset" />
          </mxGeometry>
        </mxCell>
        <mxCell id="wtgUFEFOZ-wkIHJtzj9l-17" value="&quot;include&quot;" style="endArrow=open;endSize=12;dashed=1;html=1;rounded=0;entryX=0;entryY=0;entryDx=0;entryDy=0;exitX=1;exitY=1;exitDx=0;exitDy=0;" edge="1" parent="1" source="wtgUFEFOZ-wkIHJtzj9l-6" target="wtgUFEFOZ-wkIHJtzj9l-8">
          <mxGeometry x="-0.1711" y="14" width="160" relative="1" as="geometry">
            <mxPoint x="588" y="434.40999999999997" as="sourcePoint" />
            <mxPoint x="698" y="434.40999999999997" as="targetPoint" />
            <mxPoint x="-1" as="offset" />
          </mxGeometry>
        </mxCell>
        <mxCell id="wtgUFEFOZ-wkIHJtzj9l-18" value="&quot;include&quot;" style="endArrow=open;endSize=12;dashed=1;html=1;rounded=0;entryX=0.5;entryY=0;entryDx=0;entryDy=0;exitX=0;exitY=1;exitDx=0;exitDy=0;" edge="1" parent="1" source="wtgUFEFOZ-wkIHJtzj9l-6" target="wtgUFEFOZ-wkIHJtzj9l-9">
          <mxGeometry x="-0.0396" y="-20" width="160" relative="1" as="geometry">
            <mxPoint x="666" y="350" as="sourcePoint" />
            <mxPoint x="728" y="335" as="targetPoint" />
            <mxPoint y="-1" as="offset" />
          </mxGeometry>
        </mxCell>
        <mxCell id="wtgUFEFOZ-wkIHJtzj9l-19" value="&quot;include&quot;" style="endArrow=open;endSize=12;dashed=1;html=1;rounded=0;entryX=0;entryY=1;entryDx=0;entryDy=0;exitX=1;exitY=0;exitDx=0;exitDy=0;" edge="1" parent="1" source="wtgUFEFOZ-wkIHJtzj9l-7" target="wtgUFEFOZ-wkIHJtzj9l-10">
          <mxGeometry x="-0.2752" y="15" width="160" relative="1" as="geometry">
            <mxPoint x="484" y="-200.58999999999997" as="sourcePoint" />
            <mxPoint x="594" y="-200.58999999999997" as="targetPoint" />
            <mxPoint x="1" as="offset" />
          </mxGeometry>
        </mxCell>
        <mxCell id="wtgUFEFOZ-wkIHJtzj9l-20" value="&quot;include&quot;" style="endArrow=open;endSize=12;dashed=1;html=1;rounded=0;entryX=0.5;entryY=1;entryDx=0;entryDy=0;exitX=0.5;exitY=0;exitDx=0;exitDy=0;" edge="1" parent="1" source="wtgUFEFOZ-wkIHJtzj9l-7" target="wtgUFEFOZ-wkIHJtzj9l-11">
          <mxGeometry x="-0.1915" y="-14" width="160" relative="1" as="geometry">
            <mxPoint x="461" y="-165" as="sourcePoint" />
            <mxPoint x="436" y="-225" as="targetPoint" />
            <mxPoint x="1" as="offset" />
          </mxGeometry>
        </mxCell>
        <mxCell id="wtgUFEFOZ-wkIHJtzj9l-21" value="&quot;include&quot;" style="endArrow=open;endSize=12;dashed=1;html=1;rounded=0;entryX=1;entryY=0.5;entryDx=0;entryDy=0;exitX=0;exitY=0;exitDx=0;exitDy=0;" edge="1" parent="1" source="wtgUFEFOZ-wkIHJtzj9l-7" target="wtgUFEFOZ-wkIHJtzj9l-13">
          <mxGeometry x="-0.1915" y="-14" width="160" relative="1" as="geometry">
            <mxPoint x="420" y="-155" as="sourcePoint" />
            <mxPoint x="348" y="-170" as="targetPoint" />
            <mxPoint x="1" as="offset" />
          </mxGeometry>
        </mxCell>
        <mxCell id="wtgUFEFOZ-wkIHJtzj9l-22" value="&quot;include&quot;" style="endArrow=open;endSize=12;dashed=1;html=1;rounded=0;entryX=1;entryY=0.5;entryDx=0;entryDy=0;exitX=0;exitY=1;exitDx=0;exitDy=0;" edge="1" parent="1" source="wtgUFEFOZ-wkIHJtzj9l-7" target="wtgUFEFOZ-wkIHJtzj9l-12">
          <mxGeometry x="-0.0941" y="-22" width="160" relative="1" as="geometry">
            <mxPoint x="420" y="-105" as="sourcePoint" />
            <mxPoint x="358" y="-70" as="targetPoint" />
            <mxPoint x="-1" as="offset" />
          </mxGeometry>
        </mxCell>
        <mxCell id="wtgUFEFOZ-wkIHJtzj9l-24" value="&quot;extend&quot;" style="html=1;verticalAlign=bottom;endArrow=open;dashed=1;endSize=8;curved=0;rounded=0;entryX=1;entryY=0;entryDx=0;entryDy=0;exitX=0;exitY=1;exitDx=0;exitDy=0;" edge="1" parent="1" source="wtgUFEFOZ-wkIHJtzj9l-5" target="wtgUFEFOZ-wkIHJtzj9l-6">
          <mxGeometry x="0.0371" y="-12" relative="1" as="geometry">
            <mxPoint x="550" y="145" as="sourcePoint" />
            <mxPoint x="444" y="190" as="targetPoint" />
            <mxPoint as="offset" />
          </mxGeometry>
        </mxCell>
        <mxCell id="wtgUFEFOZ-wkIHJtzj9l-25" value="ввести сообщение" style="ellipse;whiteSpace=wrap;html=1;" vertex="1" parent="1">
          <mxGeometry x="1140" y="160" width="114" height="70" as="geometry" />
        </mxCell>
        <mxCell id="wtgUFEFOZ-wkIHJtzj9l-26" value="посмотреть переписку&lt;br&gt;с пользователем" style="ellipse;whiteSpace=wrap;html=1;" vertex="1" parent="1">
          <mxGeometry x="800" y="130" width="114" height="70" as="geometry" />
        </mxCell>
        <mxCell id="wtgUFEFOZ-wkIHJtzj9l-27" value="посмотреть&lt;br&gt;переписку&lt;br&gt;группы" style="ellipse;whiteSpace=wrap;html=1;" vertex="1" parent="1">
          <mxGeometry x="820" y="280" width="114" height="70" as="geometry" />
        </mxCell>
        <mxCell id="wtgUFEFOZ-wkIHJtzj9l-28" value="&quot;extend&quot;" style="html=1;verticalAlign=bottom;endArrow=open;dashed=1;endSize=8;curved=0;rounded=0;exitX=0;exitY=1;exitDx=0;exitDy=0;entryX=1;entryY=0;entryDx=0;entryDy=0;" edge="1" parent="1" source="wtgUFEFOZ-wkIHJtzj9l-26" target="wtgUFEFOZ-wkIHJtzj9l-5">
          <mxGeometry x="0.2865" y="-16" relative="1" as="geometry">
            <mxPoint x="984" y="150" as="sourcePoint" />
            <mxPoint x="1000" y="220" as="targetPoint" />
            <mxPoint x="-1" as="offset" />
          </mxGeometry>
        </mxCell>
        <mxCell id="wtgUFEFOZ-wkIHJtzj9l-29" value="&quot;extend&quot;" style="html=1;verticalAlign=bottom;endArrow=open;dashed=1;endSize=8;curved=0;rounded=0;exitX=0;exitY=0.5;exitDx=0;exitDy=0;entryX=1;entryY=1;entryDx=0;entryDy=0;" edge="1" parent="1" source="wtgUFEFOZ-wkIHJtzj9l-27" target="wtgUFEFOZ-wkIHJtzj9l-5">
          <mxGeometry x="0.0167" y="-15" relative="1" as="geometry">
            <mxPoint x="987" y="130" as="sourcePoint" />
            <mxPoint x="957" y="210" as="targetPoint" />
            <mxPoint as="offset" />
          </mxGeometry>
        </mxCell>
        <mxCell id="wtgUFEFOZ-wkIHJtzj9l-30" value="" style="endArrow=none;html=1;rounded=0;entryX=0;entryY=0.5;entryDx=0;entryDy=0;" edge="1" parent="1" target="wtgUFEFOZ-wkIHJtzj9l-2">
          <mxGeometry width="50" height="50" relative="1" as="geometry">
            <mxPoint x="160" y="205" as="sourcePoint" />
            <mxPoint x="360" y="270" as="targetPoint" />
          </mxGeometry>
        </mxCell>
        <mxCell id="wtgUFEFOZ-wkIHJtzj9l-31" value="зарегистрироваться" style="ellipse;whiteSpace=wrap;html=1;" vertex="1" parent="1">
          <mxGeometry x="540" y="-40" width="114" height="70" as="geometry" />
        </mxCell>
        <mxCell id="wtgUFEFOZ-wkIHJtzj9l-32" value="&quot;extend&quot;" style="html=1;verticalAlign=bottom;endArrow=open;dashed=1;endSize=8;curved=0;rounded=0;exitX=0;exitY=0;exitDx=0;exitDy=0;entryX=1;entryY=0.5;entryDx=0;entryDy=0;" edge="1" parent="1" source="wtgUFEFOZ-wkIHJtzj9l-31" target="wtgUFEFOZ-wkIHJtzj9l-7">
          <mxGeometry x="-0.1026" y="-17" relative="1" as="geometry">
            <mxPoint x="524" y="-195" as="sourcePoint" />
            <mxPoint x="584" y="-155" as="targetPoint" />
            <mxPoint x="1" as="offset" />
          </mxGeometry>
        </mxCell>
        <mxCell id="wtgUFEFOZ-wkIHJtzj9l-33" value="&quot;extend&quot;" style="html=1;verticalAlign=bottom;endArrow=open;dashed=1;endSize=8;curved=0;rounded=0;entryX=0;entryY=0;entryDx=0;entryDy=0;exitX=1;exitY=0.5;exitDx=0;exitDy=0;" edge="1" parent="1" source="wtgUFEFOZ-wkIHJtzj9l-3" target="wtgUFEFOZ-wkIHJtzj9l-5">
          <mxGeometry x="0.0042" y="20" relative="1" as="geometry">
            <mxPoint x="764" y="195" as="sourcePoint" />
            <mxPoint x="720" y="255" as="targetPoint" />
            <mxPoint as="offset" />
          </mxGeometry>
        </mxCell>
        <mxCell id="wtgUFEFOZ-wkIHJtzj9l-34" value="выйти из формы&lt;br&gt;и вернуться в&amp;nbsp;&lt;br&gt;SignIn" style="ellipse;whiteSpace=wrap;html=1;" vertex="1" parent="1">
          <mxGeometry x="508" y="50" width="114" height="70" as="geometry" />
        </mxCell>
        <mxCell id="wtgUFEFOZ-wkIHJtzj9l-35" value="&quot;extend&quot;" style="html=1;verticalAlign=bottom;endArrow=open;dashed=1;endSize=8;curved=0;rounded=0;entryX=0;entryY=0.5;entryDx=0;entryDy=0;exitX=1;exitY=0.5;exitDx=0;exitDy=0;" edge="1" parent="1" source="wtgUFEFOZ-wkIHJtzj9l-4" target="wtgUFEFOZ-wkIHJtzj9l-34">
          <mxGeometry x="0.3662" y="7" relative="1" as="geometry">
            <mxPoint x="720" y="-20" as="sourcePoint" />
            <mxPoint x="501" y="-155" as="targetPoint" />
            <mxPoint as="offset" />
          </mxGeometry>
        </mxCell>
        <mxCell id="wtgUFEFOZ-wkIHJtzj9l-37" value="выбрать пользователя" style="ellipse;whiteSpace=wrap;html=1;" vertex="1" parent="1">
          <mxGeometry x="900" y="10" width="114" height="70" as="geometry" />
        </mxCell>
        <mxCell id="wtgUFEFOZ-wkIHJtzj9l-38" value="выбрать&lt;br&gt;группу" style="ellipse;whiteSpace=wrap;html=1;" vertex="1" parent="1">
          <mxGeometry x="990" y="350" width="114" height="70" as="geometry" />
        </mxCell>
        <mxCell id="wtgUFEFOZ-wkIHJtzj9l-39" value="&quot;include&quot;" style="endArrow=open;endSize=12;dashed=1;html=1;rounded=0;entryX=0;entryY=1;entryDx=0;entryDy=0;exitX=0.5;exitY=0;exitDx=0;exitDy=0;" edge="1" parent="1" source="wtgUFEFOZ-wkIHJtzj9l-26" target="wtgUFEFOZ-wkIHJtzj9l-37">
          <mxGeometry x="-0.091" y="14" width="160" relative="1" as="geometry">
            <mxPoint x="860" y="95" as="sourcePoint" />
            <mxPoint x="820" y="10" as="targetPoint" />
            <mxPoint x="-1" as="offset" />
          </mxGeometry>
        </mxCell>
        <mxCell id="wtgUFEFOZ-wkIHJtzj9l-40" value="&quot;include&quot;" style="endArrow=open;endSize=12;dashed=1;html=1;rounded=0;entryX=0;entryY=0.5;entryDx=0;entryDy=0;exitX=1;exitY=1;exitDx=0;exitDy=0;" edge="1" parent="1" source="wtgUFEFOZ-wkIHJtzj9l-27" target="wtgUFEFOZ-wkIHJtzj9l-38">
          <mxGeometry x="0.1106" y="15" width="160" relative="1" as="geometry">
            <mxPoint x="998" y="270" as="sourcePoint" />
            <mxPoint x="944" y="230" as="targetPoint" />
            <mxPoint as="offset" />
          </mxGeometry>
        </mxCell>
        <mxCell id="wtgUFEFOZ-wkIHJtzj9l-41" value="отправить&lt;br&gt;сообщение пользователю" style="ellipse;whiteSpace=wrap;html=1;" vertex="1" parent="1">
          <mxGeometry x="980" y="120" width="114" height="70" as="geometry" />
        </mxCell>
        <mxCell id="wtgUFEFOZ-wkIHJtzj9l-42" value="отправить&lt;br&gt;сообщение&lt;br&gt;в группу" style="ellipse;whiteSpace=wrap;html=1;" vertex="1" parent="1">
          <mxGeometry x="1000" y="230" width="114" height="70" as="geometry" />
        </mxCell>
        <mxCell id="wtgUFEFOZ-wkIHJtzj9l-43" value="&quot;extend&quot;" style="html=1;verticalAlign=bottom;endArrow=open;dashed=1;endSize=8;curved=0;rounded=0;exitX=0;exitY=0.5;exitDx=0;exitDy=0;entryX=1;entryY=0.5;entryDx=0;entryDy=0;" edge="1" parent="1" source="wtgUFEFOZ-wkIHJtzj9l-41" target="wtgUFEFOZ-wkIHJtzj9l-26">
          <mxGeometry x="0.0775" y="-16" relative="1" as="geometry">
            <mxPoint x="948" y="55" as="sourcePoint" />
            <mxPoint x="950" y="170" as="targetPoint" />
            <mxPoint as="offset" />
          </mxGeometry>
        </mxCell>
        <mxCell id="wtgUFEFOZ-wkIHJtzj9l-44" value="&quot;extend&quot;" style="html=1;verticalAlign=bottom;endArrow=open;dashed=1;endSize=8;curved=0;rounded=0;entryX=1;entryY=0;entryDx=0;entryDy=0;exitX=0;exitY=0.5;exitDx=0;exitDy=0;" edge="1" parent="1" source="wtgUFEFOZ-wkIHJtzj9l-42" target="wtgUFEFOZ-wkIHJtzj9l-27">
          <mxGeometry x="0.2181" y="-14" relative="1" as="geometry">
            <mxPoint x="824" y="265" as="sourcePoint" />
            <mxPoint x="705" y="305" as="targetPoint" />
            <mxPoint x="1" as="offset" />
          </mxGeometry>
        </mxCell>
        <mxCell id="wtgUFEFOZ-wkIHJtzj9l-47" value="&quot;include&quot;" style="endArrow=open;endSize=12;dashed=1;html=1;rounded=0;entryX=0;entryY=0;entryDx=0;entryDy=0;exitX=1;exitY=0.5;exitDx=0;exitDy=0;" edge="1" parent="1" source="wtgUFEFOZ-wkIHJtzj9l-41" target="wtgUFEFOZ-wkIHJtzj9l-25">
          <mxGeometry x="-0.091" y="14" width="160" relative="1" as="geometry">
            <mxPoint x="1144" y="120" as="sourcePoint" />
            <mxPoint x="1254" y="60" as="targetPoint" />
            <mxPoint x="-1" as="offset" />
          </mxGeometry>
        </mxCell>
        <mxCell id="wtgUFEFOZ-wkIHJtzj9l-48" value="&quot;include&quot;" style="endArrow=open;endSize=12;dashed=1;html=1;rounded=0;entryX=0;entryY=1;entryDx=0;entryDy=0;exitX=1;exitY=0;exitDx=0;exitDy=0;" edge="1" parent="1" source="wtgUFEFOZ-wkIHJtzj9l-42" target="wtgUFEFOZ-wkIHJtzj9l-25">
          <mxGeometry x="-0.091" y="14" width="160" relative="1" as="geometry">
            <mxPoint x="1134" y="230" as="sourcePoint" />
            <mxPoint x="1208" y="255" as="targetPoint" />
            <mxPoint x="-1" as="offset" />
          </mxGeometry>
        </mxCell>
        <mxCell id="H44rNz0SrSa8WQOl9-FQ-1" value="&quot;extend&quot;" style="html=1;verticalAlign=bottom;endArrow=open;dashed=1;endSize=8;curved=0;rounded=0;exitX=0.5;exitY=1;exitDx=0;exitDy=0;entryX=0.5;entryY=0;entryDx=0;entryDy=0;" edge="1" parent="1" source="wtgUFEFOZ-wkIHJtzj9l-4" target="wtgUFEFOZ-wkIHJtzj9l-2">
          <mxGeometry x="0.2464" y="-23" relative="1" as="geometry">
            <mxPoint x="127.85908694152772" y="-45.15086334475495" as="sourcePoint" />
            <mxPoint x="110" y="240" as="targetPoint" />
            <mxPoint as="offset" />
          </mxGeometry>
        </mxCell>
        <mxCell id="H44rNz0SrSa8WQOl9-FQ-2" value="&quot;include&quot;" style="endArrow=open;endSize=12;dashed=1;html=1;rounded=0;entryX=1;entryY=0;entryDx=0;entryDy=0;exitX=0;exitY=1;exitDx=0;exitDy=0;" edge="1" parent="1" source="wtgUFEFOZ-wkIHJtzj9l-34" target="wtgUFEFOZ-wkIHJtzj9l-2">
          <mxGeometry x="-0.0941" y="-22" width="160" relative="1" as="geometry">
            <mxPoint x="538" y="110" as="sourcePoint" />
            <mxPoint x="414" y="135" as="targetPoint" />
            <mxPoint x="-1" as="offset" />
          </mxGeometry>
        </mxCell>
        <mxCell id="tInyiMjHS99IwZDkYBmr-1" value="&quot;extend&quot;" style="html=1;verticalAlign=bottom;endArrow=open;dashed=1;endSize=8;curved=0;rounded=0;entryX=0.5;entryY=0;entryDx=0;entryDy=0;exitX=0.5;exitY=1;exitDx=0;exitDy=0;" edge="1" parent="1" source="wtgUFEFOZ-wkIHJtzj9l-7" target="wtgUFEFOZ-wkIHJtzj9l-4">
          <mxGeometry x="0.3662" y="7" relative="1" as="geometry">
            <mxPoint x="600" y="-90" as="sourcePoint" />
            <mxPoint x="423" y="-30" as="targetPoint" />
            <mxPoint as="offset" />
          </mxGeometry>
        </mxCell>
      </root>
    </mxGraphModel>
  </diagram>
</mxfile>
